<!-- Generated by IcoMoon.io -->
<svg version="1.1" xmlns="http://www.w3.org/2000/svg" width="32" height="32" viewBox="0 0 32 32">
<title>backward-arrows</title>
<path d="M18.926 8.723v2.654c0 0.183-0.098 0.352-0.256 0.443l-6.468 3.734c-0.341 0.197-0.341 0.69 0 0.887l6.468 3.734c0.158 0.092 0.256 0.26 0.256 0.443v2.654c0 0.394-0.427 0.64-0.768 0.443l-12.6-7.275c-0.341-0.197-0.341-0.69 0-0.887l12.6-7.275c0.341-0.197 0.768 0.049 0.768 0.443z"></path>
<path d="M6.198 16.761c-0.341-0.197-0.341-0.69 0-0.887l12.6-7.275c0.032-0.019 0.066-0.029 0.099-0.040-0.099-0.292-0.448-0.447-0.739-0.28l-12.6 7.275c-0.341 0.197-0.341 0.69 0 0.887l12.6 7.275c0.062 0.036 0.126 0.052 0.191 0.061l-12.151-7.015z"></path>
<path d="M18.67 20.175l-0.76-0.439c-0.004 0.014-0.007 0.029-0.010 0.044l0.131 0.076c0.158 0.092 0.256 0.26 0.256 0.443v2.654c0 0.323-0.286 0.542-0.577 0.504l0.449 0.259c0.341 0.197 0.768-0.049 0.768-0.443v-2.654c-0-0.183-0.098-0.352-0.256-0.443z"></path>
<path d="M12.202 15.555l6.468-3.734c0.158-0.092 0.256-0.26 0.256-0.443v-2.654c0-0.357-0.349-0.589-0.669-0.484 0.017 0.051 0.029 0.105 0.029 0.164v2.654c0 0.183-0.098 0.352-0.256 0.443l-6.468 3.734c-0.025 0.017-0.238 0.165-0.256 0.443-0.018 0.292 0.195 0.469 0.215 0.486 0.204 0.142 0.409 0.283 0.613 0.425-0.010-0.036-0.022-0.1 0.006-0.163 0.004-0.008 0.008-0.016 0.012-0.022-0.286-0.215-0.273-0.662 0.050-0.848z"></path>
<path d="M27.699 8.723v2.654c0 0.183-0.098 0.352-0.256 0.443l-6.468 3.734c-0.341 0.197-0.341 0.69 0 0.887l6.468 3.734c0.158 0.092 0.256 0.26 0.256 0.443v2.654c0 0.394-0.427 0.64-0.768 0.443l-12.6-7.275c-0.341-0.197-0.341-0.69 0-0.887l12.6-7.275c0.341-0.197 0.768 0.049 0.768 0.443z"></path>
<path d="M14.971 16.761c-0.341-0.197-0.341-0.69 0-0.887l12.6-7.275c0.032-0.019 0.066-0.029 0.099-0.040-0.099-0.292-0.448-0.447-0.739-0.28l-12.6 7.275c-0.341 0.197-0.341 0.69 0 0.887l12.6 7.275c0.062 0.036 0.126 0.052 0.191 0.061l-12.151-7.015z"></path>
<path d="M27.443 20.175l-0.76-0.439c-0.004 0.014-0.007 0.029-0.010 0.044l0.131 0.076c0.158 0.092 0.256 0.26 0.256 0.443v2.654c0 0.323-0.286 0.542-0.577 0.504l0.449 0.259c0.341 0.197 0.768-0.049 0.768-0.443v-2.654c-0-0.183-0.098-0.352-0.256-0.443z"></path>
<path d="M20.975 15.555l6.468-3.734c0.158-0.092 0.256-0.26 0.256-0.443v-2.654c0-0.357-0.349-0.589-0.669-0.484 0.017 0.051 0.029 0.105 0.029 0.164v2.654c0 0.183-0.098 0.352-0.256 0.443l-6.468 3.734c-0.025 0.017-0.238 0.165-0.256 0.443-0.018 0.292 0.195 0.469 0.215 0.486 0.204 0.142 0.409 0.283 0.613 0.425-0.010-0.036-0.022-0.1 0.006-0.163 0.004-0.008 0.008-0.016 0.012-0.022-0.286-0.215-0.273-0.662 0.050-0.848z"></path>
</svg>
