<!-- Generated by IcoMoon.io -->
<svg version="1.1" xmlns="http://www.w3.org/2000/svg" width="32" height="32" viewBox="0 0 32 32">
<title>forward-arrows</title>
<path d="M13.524 8.723v2.654c0 0.183 0.098 0.352 0.256 0.443l6.468 3.734c0.341 0.197 0.341 0.69 0 0.887l-6.468 3.734c-0.158 0.092-0.256 0.26-0.256 0.443v2.654c0 0.394 0.427 0.64 0.768 0.443l12.6-7.275c0.341-0.197 0.341-0.69 0-0.887l-12.6-7.275c-0.341-0.197-0.768 0.049-0.768 0.443z"></path>
<path d="M20.832 15.706c-0.321-0.182-0.642-0.365-0.963-0.547 0.156 0.155 0.311 0.31 0.467 0.465 0.247 0.225 0.219 0.641-0.088 0.818l-6.468 3.734c-0.158 0.092-0.256 0.26-0.256 0.443v2.654c0 0.357 0.349 0.589 0.669 0.484-0.017-0.051-0.029-0.105-0.029-0.164v-2.654c0-0.183 0.098-0.352 0.256-0.443l6.468-3.734c0.036-0.027 0.229-0.179 0.256-0.443 0.024-0.238-0.098-0.476-0.312-0.612z"></path>
<path d="M14.42 12.14c-0.158-0.092-0.256-0.26-0.256-0.443v-2.654c0-0.323 0.286-0.542 0.577-0.504l-0.449-0.259c-0.341-0.197-0.768 0.049-0.768 0.443v2.654c0 0.183 0.098 0.352 0.256 0.443l0.609 0.351c0.015-0.008 0.030-0.015 0.046-0.023l-0.015-0.008z"></path>
<path d="M26.892 15.555l-12.6-7.275c-0.062-0.036-0.126-0.052-0.191-0.061l12.151 7.015c0.341 0.197 0.341 0.69 0 0.887l-12.6 7.275c-0.032 0.019-0.066 0.029-0.099 0.040 0.099 0.292 0.448 0.447 0.739 0.28l12.6-7.275c0.341-0.197 0.341-0.69 0-0.887z"></path>
<path d="M4.852 8.727v2.654c0 0.183 0.098 0.352 0.256 0.443l6.468 3.734c0.341 0.197 0.341 0.69 0 0.887l-6.468 3.734c-0.158 0.092-0.256 0.26-0.256 0.443v2.654c0 0.394 0.427 0.64 0.768 0.443l12.6-7.275c0.341-0.197 0.341-0.69 0-0.887l-12.6-7.275c-0.341-0.197-0.768 0.049-0.768 0.443z"></path>
<path d="M12.161 15.71c-0.321-0.182-0.642-0.365-0.963-0.547 0.156 0.155 0.311 0.31 0.467 0.465 0.247 0.225 0.219 0.641-0.088 0.818l-6.468 3.734c-0.158 0.092-0.256 0.26-0.256 0.443v2.654c0 0.357 0.349 0.589 0.669 0.484-0.017-0.051-0.029-0.105-0.029-0.164v-2.654c0-0.183 0.098-0.352 0.256-0.443l6.468-3.734c0.036-0.027 0.229-0.179 0.256-0.443 0.024-0.238-0.098-0.476-0.312-0.612z"></path>
<path d="M5.748 12.14c-0.158-0.092-0.256-0.26-0.256-0.443v-2.654c0-0.323 0.286-0.542 0.577-0.504l-0.449-0.259c-0.341-0.197-0.768 0.049-0.768 0.443v2.654c0 0.183 0.098 0.352 0.256 0.443l0.609 0.351c0.015-0.008 0.030-0.015 0.046-0.023l-0.015-0.008z"></path>
<path d="M18.22 15.559l-12.6-7.275c-0.062-0.036-0.126-0.052-0.191-0.061l12.151 7.015c0.341 0.197 0.341 0.69 0 0.887l-12.6 7.275c-0.032 0.019-0.066 0.029-0.099 0.040 0.099 0.292 0.448 0.447 0.739 0.28l12.6-7.275c0.341-0.197 0.341-0.69 0-0.887z"></path>
</svg>
